<svg xmlns="http://www.w3.org/2000/svg" viewBox="0 0 512 512" width="100%" height="100%">
  <g fill="#000000">
    <path d="M256 40 L64 160 L448 160 Z" />
    
    <rect x="80" y="175" width="352" height="25" rx="4" />
    
    <rect x="105" y="215" width="30" height="190" rx="2" />
    <rect x="185" y="215" width="30" height="190" rx="2" />
    <rect x="297" y="215" width="30" height="190" rx="2" />
    <rect x="377" y="215" width="30" height="190" rx="2" />
    
    <rect x="64" y="420" width="384" height="30" rx="4" />
    <rect x="48" y="455" width="416" height="15" rx="2" />
    
    <path d="M220 270 C235 280 250 280 256 282 C262 280 277 280 292 270 C302 263 310 265 310 275 L310 355 C310 363 295 363 285 368 C273 374 262 377 256 377 C250 377 239 374 227 368 C217 363 202 363 202 355 L202 275 C202 265 210 263 220 270 Z" opacity="0.95"/>
    <path d="M256 285 L256 376" stroke="#ffffff" stroke-width="3" stroke-linecap="round"/>
  </g>
</svg>
